<?xml version="1.0" standalone="no"?>
<!DOCTYPE svg PUBLIC "-//W3C//DTD SVG 1.1//EN" "http://www.w3.org/Graphics/SVG/1.1/DTD/svg11.dtd" >
<svg xmlns="http://www.w3.org/2000/svg">
<metadata>Generated by IcoMoon</metadata>
<defs>
<font id="icomoon" horiz-adv-x="1024">
<font-face units-per-em="1024" ascent="960" descent="-64" />
<missing-glyph horiz-adv-x="1024" />
<glyph unicode="&#x20;" horiz-adv-x="512" d="" />
<glyph unicode="&#xe900;" glyph-name="arrow-left" d="M195.994 512l310.835 310.835-72.397 72.397-434.432-434.432 434.432-434.432 72.397 72.397-310.835 310.835h828.006v102.4h-828.006z" />
<glyph unicode="&#xe901;" glyph-name="Close" d="M575.716 448l402.773 402.773c18.204 18.204 18.204 45.511 0 63.716s-45.511 18.204-63.716 0l-402.773-402.773-402.773 402.773c-18.204 18.204-45.511 18.204-63.716 0s-18.204-45.511 0-63.716l402.773-402.773-402.773-402.773c-18.204-18.204-18.204-45.511 0-63.716 9.102-9.102 20.48-13.653 31.858-13.653s22.756 4.551 31.858 13.653l402.773 402.773 402.773-402.773c9.102-9.102 20.48-13.653 31.858-13.653s22.756 4.551 31.858 13.653c18.204 18.204 18.204 45.511 0 63.716l-402.773 402.773z" />
<glyph unicode="&#xe902;" glyph-name="Configuration" d="M516.551 941.796c61.44 0 100.124-18.204 134.258-65.991 2.276-2.276 2.276-4.551 4.551-4.551 13.653-18.204 36.409-22.756 56.889-20.48 6.827 2.276 15.929 2.276 22.756 4.551 81.92 13.653 191.147-95.573 177.493-177.493-2.276-6.827-2.276-15.929-4.551-22.756-6.827-36.409 18.204-56.889 43.236-75.093 2.276-2.276 2.276-2.276 4.551-4.551 79.644-61.44 50.062-211.627-22.756-261.689-2.276-2.276-4.551-2.276-6.827-4.551-27.307-20.48-22.756-50.062-15.929-79.644 0-2.276 0-4.551 0-6.827 11.378-79.644-102.4-188.871-182.044-175.218-6.827 2.276-13.653 2.276-20.48 4.551-36.409 6.827-56.889-18.204-75.093-43.236 0-2.276-2.276-2.276-4.551-4.551-50.062-65.991-204.8-59.164-250.311 4.551-4.551 4.551-6.827 11.378-11.378 18.204-15.929 22.756-40.96 31.858-65.991 25.031 0 0-4.551-2.276-11.378-2.276-97.849-18.204-193.422 109.227-175.218 197.973 0 2.276 0 4.551 2.276 6.827 4.551 22.756-6.827 45.511-25.031 59.164-6.827 4.551-13.653 9.102-20.48 13.653-68.267 47.787-68.267 202.524 0 250.311 6.827 4.551 13.653 9.102 20.48 13.653 29.582 20.48 27.307 52.338 20.48 81.92 0 2.276 0 4.551-2.276 6.827-13.653 79.644 100.124 188.871 179.769 172.942 6.827-2.276 13.653-2.276 20.48-4.551 25.031-4.551 50.062 4.551 65.991 27.307 4.551 4.551 6.827 11.378 11.378 18.204 27.307 40.96 75.093 47.787 122.88 47.787 2.276 0 2.276 0 6.827 0zM507.449 873.529c-38.684 0-56.889-4.551-77.369-36.409-2.276-2.276-4.551-4.551-4.551-6.827-29.582-40.96-81.92-56.889-129.707-47.787-6.827 2.276-13.653 4.551-22.756 4.551-18.204 2.276-36.409-15.929-47.787-27.307-31.858-27.307-54.613-47.787-45.511-88.747 2.276-2.276 2.276-6.827 2.276-9.102 11.378-63.716-25.031-106.951-75.093-141.084-2.276 0-2.276-2.276-4.551-2.276-25.031-20.48-22.756-116.053 4.551-136.533 6.827-4.551 11.378-6.827 18.204-11.378 54.613-38.684 61.44-95.573 50.062-157.013 0-2.276 0-2.276 0-4.551-4.551-47.787 75.093-97.849 116.053-88.747 2.276 0 4.551 0 9.102 2.276 63.716 11.378 106.951-25.031 141.084-72.818 0-2.276 2.276-2.276 2.276-4.551 22.756-25.031 116.053-22.756 136.533 4.551 4.551 6.827 6.827 11.378 11.378 18.204 38.684 54.613 93.298 61.44 154.738 50.062 2.276 0 2.276 0 4.551 0 31.858-2.276 100.124 65.991 93.298 100.124-2.276 6.827-2.276 13.653-4.551 20.48-11.378 65.991 22.756 109.227 72.818 145.636 2.276 0 2.276 2.276 4.551 2.276 25.031 22.756 22.756 116.053-4.551 136.533-6.827 4.551-11.378 9.102-18.204 11.378-54.613 38.684-61.44 93.298-50.062 154.738 0 2.276 0 2.276 0 4.551 2.276 34.133-65.991 100.124-100.124 93.298-6.827-2.276-13.653-2.276-20.48-4.551-65.991-11.378-109.227 22.756-145.636 72.818 0 2.276-2.276 2.276-2.276 4.551-11.378 13.653-40.96 13.653-54.613 13.653-2.276 0-6.827 0-13.653 0zM514.276 620.942c6.827 0 15.929 0 22.756-2.276 15.929-2.276 31.858-6.827 45.511-13.653 36.409-15.929 63.716-45.511 81.92-79.644 6.827-13.653 11.378-29.582 13.653-43.236 2.276-18.204 4.551-36.409 0-54.613-2.276-18.204-6.827-34.133-15.929-50.062-9.102-18.204-20.48-34.133-34.133-47.787-15.929-15.929-34.133-27.307-52.338-34.133-20.48-9.102-43.236-13.653-63.716-13.653-22.756 0-43.236 4.551-63.716 11.378s-38.684 20.48-54.613 34.133c-15.929 13.653-27.307 29.582-36.409 50.062-6.827 15.929-13.653 31.858-15.929 50.062s-2.276 36.409 0 54.613c2.276 15.929 9.102 31.858 15.929 47.787 15.929 34.133 45.511 61.44 79.644 77.369 13.653 6.827 29.582 11.378 45.511 13.653 6.827 2.276 15.929 2.276 22.756 2.276 4.551-2.276 6.827-2.276 9.102-2.276zM509.724 552.676c-13.653 0-29.582-2.276-40.96-9.102-20.48-9.102-36.409-25.031-47.787-43.236-4.551-9.102-9.102-18.204-11.378-27.307-2.276-11.378-2.276-22.756 0-34.133s4.551-20.48 9.102-29.582c4.551-11.378 13.653-20.48 22.756-29.582s20.48-15.929 31.858-20.48c11.378-4.551 25.031-6.827 38.684-6.827s27.307 2.276 38.684 6.827c11.378 4.551 22.756 11.378 31.858 20.48s15.929 18.204 22.756 29.582c4.551 9.102 6.827 20.48 9.102 29.582 2.276 11.378 2.276 25.031-2.276 36.409-2.276 11.378-6.827 20.48-11.378 29.582-11.378 18.204-27.307 31.858-45.511 40.96-13.653 6.827-27.307 9.102-40.96 9.102-2.276-2.276-2.276-2.276-4.551-2.276z" />
<glyph unicode="&#xe903;" glyph-name="Dropdown" d="M994.418 598.187c-13.653 13.653-34.133 13.653-47.787 0l-427.804-425.529-425.529 425.529c-13.653 13.653-34.133 13.653-47.787 0s-13.653-34.133 0-47.787l450.56-450.56c6.827-6.827 15.929-9.102 25.031-9.102s18.204 2.276 25.031 9.102l446.009 450.56c13.653 11.378 13.653 34.133 2.276 47.787z" />
<glyph unicode="&#xe904;" glyph-name="Login" d="M512 953.173c-277.618 0-505.173-227.556-505.173-505.173s227.556-505.173 505.173-505.173 505.173 227.556 505.173 505.173c0 277.618-227.556 505.173-505.173 505.173zM512-13.938c-127.431 0-243.484 52.338-325.404 136.533 88.747 120.604 204.8 186.596 325.404 186.596s236.658-65.991 325.404-186.596c-81.92-84.196-197.973-136.533-325.404-136.533zM345.884 534.471c0 93.298 75.093 166.116 166.116 166.116s166.116-75.093 166.116-166.116-72.818-166.116-166.116-166.116-166.116 72.818-166.116 166.116zM866.987 154.453c-75.093 100.124-166.116 163.84-268.516 186.596 72.818 34.133 122.88 106.951 122.88 191.147 0 116.053-95.573 211.627-211.627 211.627s-211.627-95.573-211.627-211.627c0-84.196 52.338-157.013 122.88-191.147-100.124-22.756-193.422-88.747-268.516-186.596-65.991 79.644-104.676 182.044-104.676 293.547 0 254.862 207.076 461.938 461.938 461.938s461.938-207.076 461.938-461.938c2.276-111.502-38.684-211.627-104.676-293.547z" />
<glyph unicode="&#xe905;" glyph-name="My_Booking" d="M248.036 940.935c-11.378 0-20.48-9.102-20.48-20.48v-120.604c-31.858-9.102-54.613-38.684-54.613-70.542 0-40.96 34.133-75.093 75.093-75.093s75.093 34.133 75.093 75.093c0 34.133-22.756 61.44-54.613 70.542v120.604c0 11.378-9.102 20.48-20.48 20.48zM675.84 940.935c-11.378 0-20.48-9.102-20.48-20.48v-120.604c-31.858-9.102-54.613-38.684-54.613-70.542 0-40.96 34.133-75.093 75.093-75.093s75.093 34.133 75.093 75.093c0 34.133-22.756 61.44-54.613 70.542v120.604c0 11.378-9.102 20.48-20.48 20.48zM118.329 877.219c-59.164 0-106.951-47.787-106.951-106.951v-621.227c0-59.164 47.787-106.951 106.951-106.951h580.267c29.582-52.338 84.196-86.471 147.911-86.471 95.573 0 170.667 77.369 170.667 170.667 0 72.818-45.511 134.258-106.951 159.289v484.693c0 59.164-47.787 106.951-106.951 106.951h-63.716c-11.378 0-22.756-9.102-22.756-20.48s11.378-20.48 22.756-20.48h63.716c36.409 0 63.716-29.582 63.716-63.716v-150.187h-812.373v150.187c0 36.409 29.582 63.716 63.716 63.716h63.716c11.378 0 22.756 9.102 22.756 20.48s-11.378 20.48-22.756 20.48h-63.716zM311.751 877.219c-11.378 0-20.48-9.102-20.48-20.48s9.102-20.48 20.48-20.48h300.373c11.378 0 20.48 9.102 20.48 20.48s-9.102 20.48-20.48 20.48h-300.373zM248.036 758.89c18.204 0 31.858-13.653 31.858-31.858s-13.653-31.858-31.858-31.858c-18.204 0-31.858 13.653-31.858 31.858-2.276 18.204 13.653 31.858 31.858 31.858zM675.84 758.89c18.204 0 31.858-13.653 31.858-31.858s-13.653-31.858-31.858-31.858c-18.204 0-31.858 13.653-31.858 31.858s13.653 31.858 31.858 31.858zM54.613 576.846h814.649v-279.893c-6.827 0-13.653 2.276-20.48 2.276-95.573 0-170.667-77.369-170.667-170.667 0-15.929 2.276-29.582 6.827-43.236h-566.613c-36.409 0-63.716 29.582-63.716 63.716v427.804zM846.507 255.993c70.542 0 129.707-56.889 129.707-129.707s-56.889-129.707-129.707-129.707c-70.542 0-129.707 56.889-129.707 129.707s59.164 129.707 129.707 129.707zM846.507 233.237c-11.378 0-20.48-9.102-20.48-20.48v-86.471c0-11.378 9.102-20.48 20.48-20.48h75.093c11.378 0 20.48 9.102 20.48 20.48s-9.102 22.756-20.48 22.756h-54.613v63.716c2.276 11.378-6.827 20.48-20.48 20.48z" />
<glyph unicode="&#xe906;" glyph-name="Profile" d="M500.622 425.244c143.36 0 259.413 116.053 259.413 259.413s-116.053 257.138-259.413 257.138-259.413-116.053-259.413-259.413 116.053-257.138 259.413-257.138zM500.622 891.733c113.778 0 207.076-93.298 207.076-207.076s-93.298-209.351-207.076-209.351-207.076 93.298-207.076 207.076 93.298 209.351 207.076 209.351zM500.622 416.142c-27.307 0-56.889-2.276-84.196-9.102-97.849-18.204-186.596-70.542-252.587-147.911-68.267-79.644-104.676-179.769-104.676-284.444h50.062c0 93.298 34.133 182.044 93.298 252.587 56.889 68.267 136.533 113.778 223.004 129.707 25.031 4.551 50.062 6.827 75.093 6.827 216.178 0 391.396-175.218 391.396-391.396h50.062c0 245.76-197.973 443.733-441.458 443.733z" />
<glyph unicode="&#xe907;" glyph-name="Reservation" d="M932.978 338.773c-40.96 40.96-95.573 63.716-154.738 63.716-34.133 0-68.267-6.827-97.849-22.756-38.684 29.582-81.92 52.338-127.431 65.991 88.747 45.511 145.636 136.533 145.636 236.658 0 145.636-118.329 266.24-266.24 266.24-145.636 0-266.24-118.329-266.24-266.24 0-100.124 59.164-193.422 147.911-238.933-168.391-52.338-286.72-209.351-286.72-391.396v-9.102h45.511v9.102c0 200.249 161.564 361.813 361.813 361.813 72.818 0 143.36-22.756 204.8-63.716-50.062-40.96-79.644-102.4-79.644-168.391 0-120.604 97.849-218.453 218.453-218.453s218.453 97.849 218.453 218.453c0 61.44-22.756 116.053-63.716 157.013zM653.084 682.382c0-120.604-97.849-220.729-220.729-220.729s-220.729 97.849-220.729 220.729 97.849 220.729 220.729 220.729 220.729-100.124 220.729-220.729zM948.907 184.036c0-95.573-77.369-170.667-170.667-170.667-95.573 0-170.667 77.369-170.667 170.667 0 95.573 77.369 170.667 170.667 170.667 95.573 0 170.667-75.093 170.667-170.667zM855.609 263.68l-129.707-129.707-34.133 36.409c-6.827 6.827-20.48 9.102-27.307 0-6.827-6.827-9.102-20.48 0-27.307l47.787-50.062c4.551-4.551 9.102-6.827 13.653-6.827v0c4.551 0 9.102 2.276 13.653 6.827l145.636 145.636c6.827 6.827 6.827 18.204 0 25.031-9.102 6.827-20.48 6.827-29.582 0z" />
<glyph unicode="&#xe908;" glyph-name="Waiting_list" d="M785.067 395.662c-31.858 0-63.716-6.827-91.022-22.756-36.409 27.307-77.369 47.787-120.604 61.44 84.196 43.236 136.533 129.707 136.533 225.28 0 138.809-113.778 252.587-252.587 252.587s-252.587-111.502-252.587-252.587c0-95.573 54.613-182.044 138.809-225.28-159.289-50.062-270.791-197.973-270.791-368.64v-9.102h45.511v9.102c0 188.871 152.462 343.609 341.333 343.609 68.267 0 136.533-20.48 193.422-59.164-47.787-38.684-75.093-97.849-75.093-159.289 0-113.778 93.298-207.076 207.076-207.076s207.076 93.298 207.076 207.076-93.298 204.8-207.076 204.8zM457.387 452.551c-113.778 0-207.076 93.298-207.076 207.076s93.298 207.076 207.076 207.076 207.076-93.298 207.076-207.076c0-113.778-93.298-207.076-207.076-207.076zM785.067 27.022c-88.747 0-161.564 72.818-161.564 161.564s72.818 161.564 161.564 161.564c88.747 0 161.564-72.818 161.564-161.564s-72.818-161.564-161.564-161.564zM805.547 300.089h-43.236v-138.809l81.92-81.92 31.858 31.858-70.542 68.267z" />
<glyph unicode="&#xe909;" d="M512 932.693c-266.24 0-482.418-216.178-482.418-482.418 0-268.516 216.178-484.693 482.418-484.693 268.516 0 484.693 216.178 484.693 484.693 0 263.964-218.453 482.418-484.693 482.418zM739.556 313.742c61.44-61.44-31.858-154.738-93.298-93.298l-134.258 134.258-134.258-134.258c-61.44-61.44-154.738 31.858-93.298 93.298l134.258 134.258-134.258 134.258c-61.44 61.44 31.858 157.013 93.298 93.298l134.258-134.258 134.258 134.258c61.44 61.44 154.738-31.858 93.298-93.298l-134.258-134.258 134.258-134.258z" />
<glyph unicode="&#xe90a;" d="M739.556 313.742c61.44-61.44-31.858-154.738-93.298-93.298l-134.258 134.258-134.258-134.258c-61.44-61.44-154.738 31.858-93.298 93.298l134.258 134.258-134.258 134.258c-61.44 61.44 31.858 157.013 93.298 93.298l134.258-134.258 134.258 134.258c61.44 61.44 154.738-31.858 93.298-93.298l-134.258-134.258 134.258-134.258z" />
<glyph unicode="&#xe90b;" glyph-name="star-fill" d="M536.206 920.156l130.254-308.288 333.466-28.647c23.128-1.997 32.537-30.855 14.981-46.046l-252.938-219.139 75.797-326.002c5.256-22.655-19.291-40.474-39.16-28.437l-286.579 172.831-286.579-172.831c-19.922-11.985-44.417 5.835-39.16 28.437l75.797 326.002-252.991 219.192c-17.556 15.191-8.2 44.049 14.981 46.046l333.466 28.647 130.254 308.236c9.041 21.446 39.37 21.446 48.411 0z" />
<glyph unicode="&#xe90c;" glyph-name="star" d="M206.882-39.824c-3.794 0-7.588 1.173-10.778 3.501-5.645 4.106-8.468 11.053-7.277 17.926l56.656 330.256-239.948 233.863c-4.986 4.876-6.782 12.152-4.637 18.769 2.163 6.635 7.9 11.474 14.81 12.482l331.576 48.188 148.302 300.471c3.079 6.269 9.458 10.228 16.423 10.228v0c6.983 0 13.362-3.959 16.423-10.228l148.284-300.471 331.594-48.188c6.91-1.008 12.629-5.829 14.81-12.482 2.145-6.617 0.367-13.912-4.637-18.769l-239.948-233.9 56.637-330.238c1.173-6.873-1.65-13.82-7.277-17.926-5.645-4.142-13.142-4.674-19.319-1.393l-296.567 155.909-296.604-155.909c-2.676-1.393-5.609-2.090-8.523-2.090zM57.719 546.052l220.244-214.69c4.307-4.197 6.287-10.283 5.26-16.221l-52-303.129 272.263 143.115c5.334 2.823 11.694 2.823 17.065 0l272.226-143.115-51.982 303.129c-1.026 5.939 0.953 12.006 5.26 16.221l220.244 214.69-304.357 44.228c-5.975 0.861-11.126 4.619-13.802 10.026l-136.131 275.782-136.131-275.8c-2.676-5.407-7.827-9.165-13.802-10.026l-304.357-44.21z" />
<glyph unicode="&#xe90d;" glyph-name="table" d="M1008.485 638.278h-992.97c-8.564 0-15.515 6.951-15.515 15.515v106.465c0 8.564 6.951 15.515 15.515 15.515h992.97c8.564 0 15.515-6.951 15.515-15.515v-106.496c0-8.564-6.951-15.484-15.515-15.484zM31.030 669.308h961.939v75.435h-961.939v-75.435zM97.311 120.227h-45.552c-4.561 0-8.937 2.017-11.885 5.554s-4.189 8.161-3.382 12.66l91.105 518.051c1.303 7.385 7.727 12.816 15.267 12.816h106.31c4.872 0 9.495-2.296 12.412-6.206s3.848-8.968 2.451-13.653l-151.862-518.082c-1.924-6.609-8.006-11.14-14.864-11.14zM70.253 151.257h15.453l142.77 487.021h-72.58l-85.644-487.021zM945.524 120.227h-45.584c-6.889 0-12.94 4.53-14.864 11.14l-151.862 518.051c-1.396 4.686-0.465 9.744 2.451 13.653 2.948 3.91 7.54 6.206 12.412 6.206h106.31c7.54 0 13.964-5.43 15.267-12.816l91.136-518.051c0.776-4.53-0.465-9.154-3.382-12.66s-7.323-5.523-11.885-5.523zM911.546 151.257h15.484l-85.675 487.021h-72.549l142.739-487.021zM777.899 536.56h-558.545c-8.564 0-15.515 6.951-15.515 15.515s6.951 15.515 15.515 15.515h558.545c8.564 0 15.515-6.951 15.515-15.515s-6.92-15.515-15.515-15.515z" />
<glyph unicode="&#xe90e;" glyph-name="key" d="M669.948 960c-190.838 0-346.098-155.26-346.098-346.098 0-42.426 7.538-83.654 22.422-122.806l-330.928-330.952c-4.73-4.732-7.388-11.146-7.388-17.834v-181.088c0-13.93 11.292-25.222 25.222-25.222h149.232c6.682 0 13.090 2.65 17.82 7.372l50.29 50.214c4.74 4.732 7.402 11.154 7.402 17.85v61.752h61.674c13.93 0 25.222 11.292 25.222 25.222v24.72h24.722c13.928 0 25.222 11.292 25.222 25.222v54.272h54.272c6.688 0 13.102 2.658 17.834 7.388l80.242 80.242c39.158-14.898 80.392-22.446 122.834-22.446 190.838 0 346.098 155.26 346.098 346.098 0.002 190.834-155.256 346.094-346.094 346.094zM669.948 318.252c-41.284 0-81.212 8.338-118.678 24.786-9.688 4.252-20.598 1.912-27.742-5.050-0.078-0.074-0.154-0.134-0.23-0.212l-84.708-84.708h-69.046c-13.93 0-25.222-11.292-25.222-25.222v-54.272h-24.722c-13.928 0-25.222-11.292-25.222-25.222v-24.72h-61.676c-13.928 0-25.222-11.292-25.222-25.222v-76.514l-35.506-35.45h-113.57v35.642l308.282 308.28c8.866 8.866 8.866 23.238 0 32.102s-23.234 8.868-32.106 0l-276.176-276.178v45.568l335.392 335.416c0.076 0.076 0.134 0.146 0.204 0.22 6.964 7.138 9.312 18.048 5.060 27.744-16.432 37.464-24.76 77.39-24.76 118.66 0 163.024 132.63 295.654 295.654 295.654s295.65-132.628 295.65-295.654c-0.004-163.020-132.636-295.648-295.656-295.648zM775.276 813.712c-52.094 0-94.474-42.38-94.474-94.474s42.38-94.474 94.474-94.474 94.474 42.38 94.474 94.474-42.378 94.474-94.474 94.474zM775.276 675.208c-24.278 0-44.030 19.752-44.030 44.030s19.752 44.030 44.030 44.030 44.030-19.752 44.030-44.030-19.752-44.030-44.030-44.030z" />
<glyph unicode="&#xe90f;" glyph-name="logout" d="M0 707.185v-518.37c0-71.427 58.27-129.697 129.697-129.697h418.957c71.427 0 129.697 58.27 129.697 129.697v83.958c0 14.202-11.487 25.689-25.689 25.689s-25.689-11.487-25.689-25.689v-83.958c0-43.232-35.296-78.528-78.528-78.528h-418.748c-43.232 0-78.528 35.296-78.528 78.528v518.37c0 43.232 35.296 78.528 78.528 78.528h418.957c43.232 0 78.528-35.296 78.528-78.528v-83.958c0-14.202 11.487-25.689 25.689-25.689s25.689 11.487 25.689 25.689v83.958c0 71.427-58.27 129.697-129.697 129.697h-419.165c-71.427 0-129.697-58.061-129.697-129.697zM804.915 254.812c5.012-5.012 11.487-7.519 18.17-7.519s13.158 2.506 18.17 7.519l175.227 175.227c10.025 10.025 10.025 26.106 0 36.131l-175.227 175.227c-10.025 10.025-26.106 10.025-36.131 0s-10.025-26.106 0-36.131l131.577-131.577h-480.15c-14.202 0-25.689-11.487-25.689-25.689s11.487-25.689 25.689-25.689h479.941l-131.577-131.577c-10.025-9.816-10.025-26.106 0-35.922z" />
<glyph unicode="&#xe910;" glyph-name="pdf" d="M298.166 435.312c0 27.574-19.147 44.031-52.936 44.031-13.783 0-23.122-1.329-28.019-2.662v-88.544c5.789-1.314 12.906-1.764 22.666-1.764 36.050 0 58.289 18.236 58.289 48.939zM507.305 478.455c-15.142 0-24.907-1.333-30.711-2.668v-196.179c5.793-1.355 15.137-1.355 23.592-1.355 61.382-0.429 101.422 33.364 101.422 104.991 0.45 62.304-36.039 95.211-94.303 95.211zM908.038 593.72h-24.589v118.641c0 0.74-0.117 1.485-0.216 2.235-0.039 4.711-1.537 9.338-4.763 13.004l-197.432 225.532c-0.059 0.058-0.117 0.078-0.158 0.141-1.177 1.314-2.549 2.408-3.999 3.354-0.429 0.288-0.863 0.53-1.313 0.779-1.257 0.686-2.59 1.255-3.962 1.666-0.372 0.104-0.706 0.257-1.078 0.353-1.491 0.353-3.040 0.574-4.609 0.574h-485.215c-22.157 0-40.157-18.020-40.157-40.159v-326.112h-24.583c-31.696 0-57.396-25.689-57.396-57.396v-298.471c0-31.685 25.7-57.391 57.396-57.391h24.585v-204.313c0-22.136 18-40.159 40.157-40.159h662.587c22.136 0 40.157 18.020 40.157 40.159v204.313h24.589c31.687 0 57.393 25.706 57.393 57.391v298.462c-0.002 31.705-25.708 57.396-57.394 57.396zM180.706 919.834h465.136v-205.456c0-11.093 9-20.078 20.078-20.078h177.372v-100.593h-662.587v326.127zM673.665 385.492c0-57.402-20.902-96.981-49.861-121.461-31.551-26.245-79.607-38.696-138.31-38.696-35.137 0-60.044 2.225-76.969 4.441v294.513c24.91 3.995 57.406 6.221 91.662 6.221 56.911 0 93.844-10.24 122.774-32.025 31.127-23.137 50.705-60.053 50.705-112.993zM150.030 228.442v295.848c20.898 3.54 50.274 6.221 91.647 6.221 41.813 0 71.626-8.009 91.637-24.035 19.134-15.116 32.005-40.034 32.005-69.397 0-29.372-9.76-54.282-27.569-71.176-23.131-21.804-57.381-31.597-97.43-31.597-8.883 0-16.918 0.452-23.118 1.344v-107.215l-67.172 0.007zM843.294-12.971h-662.589v193.442h662.587v-193.442zM901.479 472.677h-115.244v-68.51h107.667v-55.167h-107.667v-120.56h-68.030v299.845h183.275v-55.608z" />
<glyph unicode="&#xe911;" glyph-name="xlsx" d="M908.049 593.72h-24.589v118.641c0 0.74-0.116 1.485-0.204 2.241-0.039 4.706-1.548 9.333-4.774 12.999l-197.441 225.532c-0.062 0.058-0.12 0.078-0.159 0.14-1.177 1.315-2.547 2.409-4.002 3.354-0.428 0.288-0.861 0.529-1.311 0.783-1.255 0.682-2.59 1.255-3.961 1.668-0.374 0.097-0.708 0.25-1.078 0.347-1.492 0.355-3.040 0.575-4.607 0.575h-485.217c-22.156 0-40.156-18.021-40.156-40.158v-326.111h-24.585c-31.695 0-57.396-25.691-57.396-57.398v-298.468c0-31.677 25.7-57.394 57.396-57.394h24.585v-204.316c0-22.139 18-40.156 40.156-40.156h662.587c22.137 0 40.156 18.017 40.156 40.156v204.314h24.589c31.686 0 57.39 25.706 57.39 57.394v298.459c0.002 31.716-25.685 57.398-57.379 57.398zM180.705 919.842h465.139v-205.45c0-11.094 8.996-20.079 20.079-20.079h177.372v-100.592h-662.589v326.12zM587.509 372.332c-39.452 13.744-65.195 35.569-65.195 70.118 0 40.524 33.823 71.524 89.862 71.524 26.765 0 46.509-5.629 60.589-11.977l-11.973-43.329c-9.508 4.568-26.419 11.275-49.675 11.275s-34.529-10.574-34.529-22.908c0-15.156 13.393-21.844 44.039-33.47 41.921-15.511 61.656-37.352 61.656-70.822 0-39.823-30.657-73.65-95.843-73.65-27.125 0-53.901 7.039-67.292 14.45l10.913 44.393c14.452-7.392 36.656-14.805 59.549-14.805 24.686 0 37.704 10.216 37.704 25.725 0.009 14.788-11.264 23.261-39.805 33.475zM496.632 317.725v-45.116h-148.362v237.515h53.931v-192.399h94.431zM175.999 272.609h-61.307l68.706 120.187-66.25 117.337h61.671l20.777-43.347c7.048-14.448 12.338-26.061 17.981-39.472h0.685c5.653 15.156 10.229 25.726 16.202 39.472l20.088 43.347h61.308l-66.95-115.916 70.484-121.588h-62.009l-21.506 42.996c-8.795 16.538-14.437 28.883-21.134 42.627h-0.7c-4.94-13.744-10.916-26.089-18.323-42.627l-19.724-43.017zM843.295-12.971h-662.589v193.441h662.587v-193.441zM843.657 272.609l-21.5 42.996c-8.806 16.553-14.442 28.883-21.14 42.628h-0.684c-4.942-13.746-10.941-26.076-18.353-42.628l-19.705-42.996h-61.325l68.706 120.187-66.246 117.337h61.669l20.803-43.347c7.041-14.448 12.313-26.061 17.963-39.472h0.704c5.627 15.156 10.195 25.726 16.194 39.472l20.081 43.347h61.323l-66.952-115.916 70.471-121.588-62.009-0.021z" />
<glyph unicode="&#xe912;" glyph-name="pie-chart" d="M885.224 422.094h-399.022v399.022c0 16.124-12.899 29.024-29.024 29.024-251.969 0-457.070-205.101-457.070-457.070s205.101-457.070 457.070-457.070 457.070 205.101 457.070 457.070c0 15.909-13.114 29.024-29.024 29.024zM457.177-5.953c-219.935 0-399.022 179.087-399.022 399.022 0 210.261 163.393 383.113 369.999 397.948v-397.948c0-16.124 12.899-29.024 29.024-29.024h397.948c-14.834-206.606-187.687-369.999-397.948-369.999zM1023.893 504.435c-0.43 110.935-41.063 217.785-114.375 300.987-86.856 98.251-211.551 154.578-342.695 154.578-16.124 0-29.024-12.899-29.024-29.024v-428.046c0-16.124 12.899-29.024 29.024-29.024h428.046c16.124 0 29.024 12.899 29.024 29.024 0 0.43 0 0.86 0 1.505zM595.846 531.739v368.924c103.625-7.525 200.801-55.468 270.028-133.939 58.047-65.572 92.446-148.128 98.896-234.985h-368.924z" />
<glyph unicode="&#xe913;" glyph-name="tray" d="M1008.971 222.56h-33.265c-3.807 118.231-51.501 228.847-135.665 313.011-79.756 79.756-183.158 126.848-294.375 134.663l8.016 48.294c2.004 12.224-1.403 24.648-9.418 34.067s-19.638 14.829-32.263 14.829c-12.424 0-24.047-5.411-32.063-14.829s-11.422-21.843-9.418-34.067l8.016-48.294c-111.217-7.815-214.82-55.108-294.375-134.663-84.164-84.164-132.058-194.78-135.865-313.011h-33.265c-8.216 0-15.029-6.813-15.029-15.029s6.813-15.029 15.029-15.029h24.448l24.247-32.463c14.829-19.839 38.475-31.662 63.324-31.662h769.503c24.849 0 48.495 11.823 63.324 31.662l24.247 32.463h24.448c8.216 0 15.029 6.813 15.029 15.029s-6.413 15.029-14.629 15.029zM508.794 671.436l-8.617 52.102c-0.802 4.809 1.403 8.216 2.605 9.819 1.403 1.603 4.409 4.208 9.418 4.208 4.809 0 7.815-2.605 9.218-4.208s3.407-5.010 2.605-9.819l-8.617-52.102h-6.613zM205.201 514.33c81.96 81.96 190.973 127.048 306.799 127.048s224.839-45.088 306.799-127.048c78.353-78.353 123.040-181.555 126.848-291.77h-867.294c3.807 110.215 48.495 213.417 126.848 291.77zM896.751 158.434h-769.503c-15.43 0-30.059 7.414-39.277 19.638l-10.821 14.428h869.699l-10.821-14.428c-9.218-12.224-23.847-19.638-39.277-19.638z" />
</font>
</defs>
</svg>
